<svg width="96" height="96" viewBox="0 0 96 96" fill="none" xmlns="http://www.w3.org/2000/svg">
<path d="M49.3715 70.725C50.1737 71.6756 51.5007 72.2346 52.8277 72.4406C54.1427 72.6448 55.2691 72.5934 56.3149 72.5457C56.7491 72.5258 57.1693 72.5066 57.5834 72.5066C59.2773 72.5066 60.3846 71.9459 61.4433 70.9564C62.5019 69.9669 63.0313 68.6919 63.0313 67.1315C63.0313 65.6473 62.696 64.4675 62.0255 63.5921C61.355 62.6787 60.4199 61.9176 59.22 61.3086C58.0555 60.6617 56.6969 60.0337 55.1441 59.4248C54.2266 59.0823 53.2032 58.6256 52.074 58.0547C51.7952 57.9044 51.4348 57.8111 51.0346 57.7426L49.3715 60.7949V70.725Z" fill="black"/>
<path fill-rule="evenodd" clip-rule="evenodd" d="M34.1043 28V25.1429C34.1043 20.5963 35.7791 16.2359 38.7601 13.021C41.7411 9.80612 45.7842 8 50 8C54.2158 8 58.2589 9.80612 61.2399 13.021C64.2209 16.2359 65.8957 20.5963 65.8957 25.1429V28H72.9145C74.5513 27.9997 76.1303 28.6532 77.3468 29.8343C78.5634 31.0154 79.3312 32.6406 79.5023 34.3962L83.9637 80.1105C84.0607 81.1061 83.9627 82.1126 83.6758 83.0646C83.3889 84.0167 82.9197 84.8931 82.2985 85.637C81.6773 86.3809 80.9181 86.9757 80.0701 87.3828C79.222 87.7899 78.3041 88.0001 77.3759 88H22.6242C21.6959 88.0001 20.778 87.7899 19.9299 87.3828C19.0819 86.9757 18.3227 86.3809 17.7015 85.637C17.0803 84.8931 16.6111 84.0167 16.3242 83.0646C16.0374 82.1126 15.9393 81.1061 16.0363 80.1105L20.4977 34.3962C20.8544 30.7581 23.6945 28 27.0855 28H34.1043ZM42.5067 17.0616C44.4941 14.9184 47.1895 13.7143 50 13.7143C52.8105 13.7143 55.5059 14.9184 57.4933 17.0616C59.4806 19.2049 60.5971 22.1118 60.5971 25.1429V28H39.4029V25.1429C39.4029 22.1118 40.5194 19.2049 42.5067 17.0616ZM49.1704 77.6356H43.0194V60.852L30.4741 37.6746H37.5672L46.1518 54.714C45.925 54.1814 45.7353 53.585 45.5906 52.8829C45.1771 50.876 45.1771 49.6189 45.1771 47.754C45.3838 44.8551 45.6129 43.1995 46.8313 41.5101C48.087 39.7689 48.9718 39.3365 50.3134 38.6808C50.5181 38.5808 50.7335 38.4755 50.9624 38.3596C52.7268 37.4462 54.7207 36.9895 56.9439 36.9895C58.5598 36.9895 60.0217 37.2179 61.3296 37.6746C61.5093 37.7373 61.6862 37.8044 61.8601 37.8758C62.1342 37.9883 62.4011 38.1115 62.6607 38.2455C64.284 39.0827 65.6427 40.1484 66.7366 41.4423C67.8659 42.7363 68.7481 44.0874 69.3833 45.4955L64.3017 48.5782C63.8429 47.5887 63.2607 46.6753 62.5549 45.838C61.8491 44.9627 61.0198 44.2777 60.067 43.7829C59.7076 43.5742 59.3238 43.4064 58.9156 43.2794L54.3488 51.6604C54.6714 51.8926 55.0248 52.1211 55.4088 52.346C56.6439 53.0691 58.2496 53.8112 60.2258 54.5724C61.3198 54.991 62.4137 55.5238 63.5077 56.1708C64.6369 56.8178 65.6603 57.636 66.5779 58.6256C67.4954 59.577 68.2188 60.6997 68.7481 61.9937C69.3128 63.2877 69.5951 64.81 69.5951 66.5607C69.5951 68.4255 69.2598 70.1001 68.5893 71.5843C67.9188 73.0686 67.0013 74.3245 65.8368 75.3521C64.6722 76.3416 63.3489 77.1028 61.8667 77.6356C60.4199 78.2064 58.9024 78.4919 57.3144 78.4919C55.1265 78.4919 52.2565 78.3151 50.1396 77.8586C49.8025 77.7858 49.4801 77.7131 49.1704 77.6356Z" fill="black"/>
</svg>
