<svg width="256" height="112" viewBox="0 0 256 112" fill="none" xmlns="http://www.w3.org/2000/svg">
<path d="M41.863 62.336C43.8257 65.7493 41.8348 69.9907 44.0535 72.636C45.0535 76.636 49.5535 78.84 54.0535 79.488C58.5535 80.136 62.1402 79.636 65.5535 79.636C69.6495 79.636 72.327 78.3787 74.887 76.16C77.447 73.9413 78.727 71.0827 78.727 67.584C78.727 64.256 77.9163 61.6107 76.295 59.648C74.6737 57.6 72.4123 55.8933 69.511 54.528C66.695 53.0773 63.4097 51.6693 59.655 50.304C57.4363 49.536 54.9617 48.512 52.231 47.232C49.5003 45.8667 43.5282 46.5987 41.0535 44.636C39.0535 42.136 37.4479 39.6609 36.5535 35.636C35.5535 31.136 35.5535 28.3173 35.5535 24.136C36.0535 17.636 36.6074 13.9238 39.5535 10.136C43.0535 5.63599 45.3617 5.03467 49.543 3.072C53.8097 1.024 58.631 0 64.007 0C67.9144 0 71.4495 0.511998 74.6122 1.536C75.0468 1.67671 75.4743 1.82709 75.8949 1.98714C76.5577 2.23941 77.2031 2.51569 77.831 2.81599C81.7563 4.69333 85.0417 7.08266 87.687 9.984C90.4177 12.8853 92.551 15.9147 94.087 19.072L81.799 25.984C80.6897 23.7653 79.2817 21.7173 77.575 19.84C75.8683 17.8773 73.863 16.3413 71.559 15.232C69.3403 14.0373 66.7377 13.44 63.751 13.44C59.5697 13.44 56.4977 14.4213 54.535 16.384C52.5723 18.2613 51.591 20.48 51.591 23.04C51.591 25.344 52.2737 27.4347 53.639 29.312C55.0897 31.104 57.3083 32.8107 60.295 34.432C63.2817 36.0533 67.1643 37.7173 71.943 39.424C74.5883 40.3627 77.2337 41.5573 79.879 43.008C82.6097 44.4587 85.0843 46.2933 87.303 48.512C89.5217 50.6453 91.271 53.1627 92.551 56.064C93.9163 58.9653 94.599 62.3787 94.599 66.304C94.599 70.4853 93.7883 74.24 92.167 77.568C90.5457 80.896 88.327 83.712 85.511 86.016C82.695 88.2347 79.495 89.9413 75.911 91.136C72.4123 92.416 68.743 93.056 64.903 93.056C59.6123 93.056 52.6723 92.6597 47.5535 91.636C42.5535 90.636 38.8815 89.6347 35.5535 86.136C32.2255 82.6373 32.5617 74.24 30.599 70.144L41.863 62.336Z" fill="white"/>
<path fill-rule="evenodd" clip-rule="evenodd" d="M74.6122 1.536H58.88L38.016 39.936L17.152 1.536H0L30.336 53.504V91.136H45.696V53.376L75.8949 1.98714C75.4743 1.82709 75.0468 1.67671 74.6122 1.536Z" fill="white"/>
<path d="M112.967 16V90.88H102.599V16H112.967ZM131.015 64C131.015 60.736 130.343 58.272 128.999 56.608C127.719 54.944 125.639 54.112 122.759 54.112C120.839 54.112 119.143 54.528 117.671 55.36C116.199 56.192 115.047 57.344 114.215 58.816C113.383 60.288 112.967 62.016 112.967 64H110.471C110.471 60.48 111.111 57.344 112.391 54.592C113.671 51.84 115.463 49.632 117.767 47.968C120.135 46.304 122.983 45.472 126.311 45.472C129.575 45.472 132.327 46.112 134.567 47.392C136.871 48.672 138.599 50.592 139.751 53.152C140.903 55.648 141.479 58.784 141.479 62.56V90.88H131.015V64Z" fill="white"/>
<path d="M151.27 68.8C151.27 64.256 152.294 60.256 154.342 56.8C156.454 53.344 159.302 50.656 162.886 48.736C166.47 46.752 170.534 45.76 175.078 45.76C179.622 45.76 183.654 46.752 187.174 48.736C190.758 50.656 193.606 53.344 195.718 56.8C197.83 60.256 198.886 64.256 198.886 68.8C198.886 73.28 197.83 77.28 195.718 80.8C193.606 84.256 190.758 86.976 187.174 88.96C183.654 90.88 179.622 91.84 175.078 91.84C170.534 91.84 166.47 90.88 162.886 88.96C159.302 86.976 156.454 84.256 154.342 80.8C152.294 77.28 151.27 73.28 151.27 68.8ZM161.926 68.8C161.926 71.552 162.502 73.984 163.654 76.096C164.806 78.144 166.374 79.776 168.358 80.992C170.342 82.144 172.582 82.72 175.078 82.72C177.51 82.72 179.718 82.144 181.702 80.992C183.75 79.776 185.35 78.144 186.502 76.096C187.654 73.984 188.23 71.552 188.23 68.8C188.23 66.048 187.654 63.616 186.502 61.504C185.35 59.392 183.75 57.76 181.702 56.608C179.718 55.456 177.51 54.88 175.078 54.88C172.582 54.88 170.342 55.456 168.358 56.608C166.374 57.76 164.806 59.392 163.654 61.504C162.502 63.616 161.926 66.048 161.926 68.8Z" fill="white"/>
<path d="M218.804 112H208.34V46.72H218.804V112ZM255.38 68.8C255.38 73.664 254.388 77.856 252.404 81.376C250.42 84.832 247.796 87.488 244.532 89.344C241.268 91.136 237.716 92.032 233.876 92.032C230.1 92.032 226.804 91.104 223.988 89.248C221.236 87.328 219.092 84.64 217.556 81.184C216.084 77.664 215.348 73.536 215.348 68.8C215.348 64 216.084 59.872 217.556 56.416C219.092 52.96 221.236 50.304 223.988 48.448C226.804 46.528 230.1 45.568 233.876 45.568C237.716 45.568 241.268 46.496 244.532 48.352C247.796 50.144 250.42 52.768 252.404 56.224C254.388 59.68 255.38 63.872 255.38 68.8ZM244.628 68.8C244.628 65.856 244.02 63.36 242.804 61.312C241.588 59.2 239.956 57.632 237.908 56.608C235.924 55.52 233.716 54.976 231.284 54.976C229.3 54.976 227.348 55.52 225.428 56.608C223.508 57.632 221.908 59.168 220.628 61.216C219.412 63.264 218.804 65.792 218.804 68.8C218.804 71.808 219.412 74.336 220.628 76.384C221.908 78.432 223.508 80 225.428 81.088C227.348 82.112 229.3 82.624 231.284 82.624C233.716 82.624 235.924 82.112 237.908 81.088C239.956 80 241.588 78.432 242.804 76.384C244.02 74.272 244.628 71.744 244.628 68.8Z" fill="white"/>
</svg>
